<mxfile host="app.diagrams.net" modified="2023-07-18T16:09:38.341Z" agent="Mozilla/5.0 (Macintosh; Intel Mac OS X 10.15; rv:109.0) Gecko/20100101 Firefox/115.0" etag="I1lFn29SMrjw9pfwQ1e3" version="21.6.2" type="github">
  <diagram id="GdToFJS7DiwB8CieTuuj" name="Page-1">
    <mxGraphModel dx="2954" dy="1157" grid="1" gridSize="10" guides="1" tooltips="1" connect="1" arrows="1" fold="1" page="1" pageScale="1.5" pageWidth="1169" pageHeight="826" background="none" math="0" shadow="0">
      <root>
        <mxCell id="0" style=";html=1;" />
        <mxCell id="1" style=";html=1;" parent="0" />
        <mxCell id="6a7d8f32e03d9370-61" value="&lt;font size=&quot;1&quot;&gt;&lt;b&gt;&lt;font style=&quot;font-size: 15px;&quot;&gt;USERS&lt;/font&gt;&lt;/b&gt;&lt;/font&gt;" style="whiteSpace=wrap;html=1;fillColor=#f5f5f5;fontSize=14;strokeColor=#666666;verticalAlign=top;fontColor=#333333;" parent="1" vertex="1">
          <mxGeometry x="1756" y="180" width="288.5" height="250" as="geometry" />
        </mxCell>
        <mxCell id="6a7d8f32e03d9370-60" value="&lt;font size=&quot;1&quot;&gt;&lt;b&gt;&lt;font style=&quot;font-size: 15px;&quot;&gt;OAV Webfront&lt;/font&gt;&lt;/b&gt;&lt;/font&gt;" style="whiteSpace=wrap;html=1;fontSize=14;verticalAlign=top;fillColor=#748391;strokeColor=#36393d;" parent="1" vertex="1">
          <mxGeometry x="1770" y="655.5" width="260.5" height="113.75" as="geometry" />
        </mxCell>
        <mxCell id="6a7d8f32e03d9370-59" value="&lt;font style=&quot;font-size: 15px;&quot;&gt;&lt;b&gt;OAV BACKEND&lt;/b&gt;&lt;/font&gt;" style="whiteSpace=wrap;html=1;fillColor=#ffcccc;fontSize=14;strokeColor=#36393d;verticalAlign=top;strokeWidth=1;" parent="1" vertex="1">
          <mxGeometry x="958.42" y="470" width="430" height="500" as="geometry" />
        </mxCell>
        <mxCell id="6a7d8f32e03d9370-57" value="REPLICANT" style="whiteSpace=wrap;html=1;fillColor=#FFD470;gradientColor=none;fontSize=14;strokeColor=default;verticalAlign=top;" parent="1" vertex="1">
          <mxGeometry x="350" y="462.5" width="220" height="337.5" as="geometry" />
        </mxCell>
        <mxCell id="6a7d8f32e03d9370-10" value="" style="verticalLabelPosition=bottom;aspect=fixed;html=1;verticalAlign=top;strokeColor=none;shape=mxgraph.citrix.xenapp_server;fillColor=#66B2FF;gradientColor=#0066CC;fontSize=14;" parent="1" vertex="1">
          <mxGeometry x="1272" y="843.75" width="76" height="89" as="geometry" />
        </mxCell>
        <mxCell id="6a7d8f32e03d9370-11" value="" style="verticalLabelPosition=bottom;aspect=fixed;html=1;verticalAlign=top;strokeColor=none;shape=mxgraph.citrix.xenapp_server;fillColor=#66B2FF;gradientColor=#0066CC;fontSize=14;" parent="1" vertex="1">
          <mxGeometry x="1272" y="694" width="76" height="89" as="geometry" />
        </mxCell>
        <mxCell id="6a7d8f32e03d9370-12" value="" style="verticalLabelPosition=bottom;aspect=fixed;html=1;verticalAlign=top;strokeColor=none;shape=mxgraph.citrix.xenapp_server;fillColor=#66B2FF;gradientColor=#0066CC;fontSize=14;" parent="1" vertex="1">
          <mxGeometry x="1272" y="530" width="76" height="89" as="geometry" />
        </mxCell>
        <mxCell id="6a7d8f32e03d9370-13" value="" style="verticalLabelPosition=bottom;aspect=fixed;html=1;verticalAlign=top;strokeColor=none;shape=mxgraph.citrix.router;fillColor=#66B2FF;gradientColor=#0066CC;fontSize=14;" parent="1" vertex="1">
          <mxGeometry x="1593.75" y="819.5" width="55" height="36.5" as="geometry" />
        </mxCell>
        <mxCell id="6a7d8f32e03d9370-44" style="edgeStyle=none;rounded=0;html=1;startSize=10;endSize=10;jettySize=auto;orthogonalLoop=1;fontSize=14;endArrow=classic;endFill=1;strokeWidth=3;exitX=0.921;exitY=0.713;exitDx=0;exitDy=0;exitPerimeter=0;startArrow=none;startFill=0;fillColor=#cce5ff;strokeColor=#36393d;" parent="1" source="tqMdSsXaVdP0iYTyS-ye-71" target="6a7d8f32e03d9370-13" edge="1">
          <mxGeometry relative="1" as="geometry">
            <mxPoint x="1255" y="558.2430921052633" as="sourcePoint" />
            <Array as="points">
              <mxPoint x="1580" y="810" />
            </Array>
          </mxGeometry>
        </mxCell>
        <mxCell id="6a7d8f32e03d9370-45" style="edgeStyle=none;rounded=0;html=1;startSize=10;endSize=10;jettySize=auto;orthogonalLoop=1;fontSize=14;endArrow=classic;endFill=1;strokeWidth=3;exitX=0.816;exitY=0.556;exitDx=0;exitDy=0;exitPerimeter=0;fillColor=#cdeb8b;strokeColor=#36393d;startArrow=classic;startFill=1;" parent="1" source="6a7d8f32e03d9370-11" target="6a7d8f32e03d9370-13" edge="1">
          <mxGeometry relative="1" as="geometry">
            <mxPoint x="1255" y="706.0588815789474" as="sourcePoint" />
          </mxGeometry>
        </mxCell>
        <mxCell id="6a7d8f32e03d9370-46" style="edgeStyle=none;rounded=0;html=1;startSize=10;endSize=10;jettySize=auto;orthogonalLoop=1;fontSize=14;endArrow=classic;endFill=1;strokeWidth=3;exitX=0.776;exitY=0.534;exitDx=0;exitDy=0;exitPerimeter=0;startArrow=classic;startFill=1;" parent="1" source="6a7d8f32e03d9370-10" target="6a7d8f32e03d9370-13" edge="1">
          <mxGeometry relative="1" as="geometry">
            <mxPoint x="1255" y="854" as="sourcePoint" />
          </mxGeometry>
        </mxCell>
        <mxCell id="6a7d8f32e03d9370-24" value="" style="verticalLabelPosition=bottom;aspect=fixed;html=1;verticalAlign=top;strokeColor=none;shape=mxgraph.citrix.hq_enterprise;fillColor=#66B2FF;gradientColor=#0066CC;fontSize=14;" parent="1" vertex="1">
          <mxGeometry x="980" y="665.88" width="92" height="88" as="geometry" />
        </mxCell>
        <mxCell id="6a7d8f32e03d9370-53" style="edgeStyle=none;rounded=0;html=1;startSize=10;endSize=10;jettySize=auto;orthogonalLoop=1;fontSize=14;endArrow=classic;endFill=1;strokeWidth=3;exitX=0.554;exitY=-0.024;exitDx=0;exitDy=0;exitPerimeter=0;startArrow=classic;startFill=1;fillColor=#d5e8d4;strokeColor=#82b366;" parent="1" source="6a7d8f32e03d9370-26" target="6a7d8f32e03d9370-29" edge="1">
          <mxGeometry relative="1" as="geometry">
            <Array as="points">
              <mxPoint x="1880" y="524" />
            </Array>
          </mxGeometry>
        </mxCell>
        <mxCell id="6a7d8f32e03d9370-54" style="edgeStyle=none;rounded=0;html=1;startSize=10;endSize=10;jettySize=auto;orthogonalLoop=1;fontSize=14;endArrow=classic;endFill=1;strokeWidth=3;startArrow=classic;startFill=1;fillColor=#d5e8d4;strokeColor=#82b366;" parent="1" source="6a7d8f32e03d9370-26" target="6a7d8f32e03d9370-28" edge="1">
          <mxGeometry relative="1" as="geometry" />
        </mxCell>
        <mxCell id="6a7d8f32e03d9370-55" style="edgeStyle=none;rounded=0;html=1;startSize=10;endSize=10;jettySize=auto;orthogonalLoop=1;fontSize=14;endArrow=classic;endFill=1;strokeWidth=3;exitX=0.554;exitY=0;exitDx=0;exitDy=0;exitPerimeter=0;entryX=0.535;entryY=0.951;entryDx=0;entryDy=0;entryPerimeter=0;startArrow=classic;startFill=1;fillColor=#ffcd28;gradientColor=#ffa500;strokeColor=#D7636F;" parent="1" source="6a7d8f32e03d9370-26" target="6a7d8f32e03d9370-27" edge="1">
          <mxGeometry relative="1" as="geometry" />
        </mxCell>
        <mxCell id="6a7d8f32e03d9370-26" value="" style="verticalLabelPosition=bottom;aspect=fixed;html=1;verticalAlign=top;strokeColor=none;shape=mxgraph.citrix.switch;fillColor=#66B2FF;gradientColor=#0066CC;fontSize=14;" parent="1" vertex="1">
          <mxGeometry x="1842.25" y="530" width="92" height="41.5" as="geometry" />
        </mxCell>
        <mxCell id="6a7d8f32e03d9370-27" value="Client" style="verticalLabelPosition=top;aspect=fixed;html=1;verticalAlign=bottom;strokeColor=none;shape=mxgraph.citrix.thin_client;fillColor=#66B2FF;gradientColor=#0066CC;fontSize=14;labelPosition=center;align=center;" parent="1" vertex="1">
          <mxGeometry x="1959.5" y="320" width="71" height="71" as="geometry" />
        </mxCell>
        <mxCell id="6a7d8f32e03d9370-28" value="Client" style="verticalLabelPosition=top;aspect=fixed;html=1;verticalAlign=bottom;strokeColor=none;shape=mxgraph.citrix.thin_client;fillColor=#66B2FF;gradientColor=#0066CC;fontSize=14;labelPosition=center;align=center;" parent="1" vertex="1">
          <mxGeometry x="1864.75" y="254" width="71" height="71" as="geometry" />
        </mxCell>
        <mxCell id="6a7d8f32e03d9370-29" value="Client" style="verticalLabelPosition=top;aspect=fixed;html=1;verticalAlign=bottom;strokeColor=none;shape=mxgraph.citrix.thin_client;fillColor=#66B2FF;gradientColor=#0066CC;fontSize=14;labelPosition=center;align=center;" parent="1" vertex="1">
          <mxGeometry x="1779" y="290" width="71" height="71" as="geometry" />
        </mxCell>
        <mxCell id="6a7d8f32e03d9370-62" value="OAV Archhitecture" style="text;strokeColor=none;fillColor=none;html=1;fontSize=24;fontStyle=1;verticalAlign=middle;align=center;" parent="1" vertex="1">
          <mxGeometry x="867.5" y="60" width="861" height="40" as="geometry" />
        </mxCell>
        <mxCell id="tqMdSsXaVdP0iYTyS-ye-9" value="Load Balancer" style="text;html=1;strokeColor=none;fillColor=none;align=center;verticalAlign=middle;whiteSpace=wrap;rounded=0;" parent="1" vertex="1">
          <mxGeometry x="1859.75" y="580" width="60" height="30" as="geometry" />
        </mxCell>
        <mxCell id="tqMdSsXaVdP0iYTyS-ye-10" value="" style="verticalLabelPosition=bottom;sketch=0;aspect=fixed;html=1;verticalAlign=top;strokeColor=none;align=center;outlineConnect=0;shape=mxgraph.citrix.browser;" parent="1" vertex="1">
          <mxGeometry x="1782.5" y="681.38" width="47.5" height="72.5" as="geometry" />
        </mxCell>
        <mxCell id="tqMdSsXaVdP0iYTyS-ye-11" value="" style="verticalLabelPosition=bottom;sketch=0;aspect=fixed;html=1;verticalAlign=top;strokeColor=none;align=center;outlineConnect=0;shape=mxgraph.citrix.browser;" parent="1" vertex="1">
          <mxGeometry x="1970" y="681.38" width="47.5" height="72.5" as="geometry" />
        </mxCell>
        <mxCell id="tqMdSsXaVdP0iYTyS-ye-15" value="" style="endArrow=classic;html=1;rounded=0;fontSize=14;entryX=0.207;entryY=0.892;entryDx=0;entryDy=0;entryPerimeter=0;fontStyle=0;strokeWidth=3;startArrow=classic;startFill=1;endFill=1;fillColor=#d5e8d4;strokeColor=#82b366;" parent="1" source="tqMdSsXaVdP0iYTyS-ye-10" target="6a7d8f32e03d9370-26" edge="1">
          <mxGeometry width="50" height="50" relative="1" as="geometry">
            <mxPoint x="1840" y="640" as="sourcePoint" />
            <mxPoint x="1787.5" y="573" as="targetPoint" />
          </mxGeometry>
        </mxCell>
        <mxCell id="tqMdSsXaVdP0iYTyS-ye-21" value="" style="endArrow=classic;html=1;rounded=0;fontSize=14;entryX=0.761;entryY=0.916;entryDx=0;entryDy=0;entryPerimeter=0;fontStyle=0;strokeWidth=3;startArrow=classic;startFill=1;endFill=1;fillColor=#f8cecc;strokeColor=#b85450;" parent="1" source="tqMdSsXaVdP0iYTyS-ye-11" target="6a7d8f32e03d9370-26" edge="1">
          <mxGeometry width="50" height="50" relative="1" as="geometry">
            <mxPoint x="2060" y="600" as="sourcePoint" />
            <mxPoint x="1950" y="530" as="targetPoint" />
          </mxGeometry>
        </mxCell>
        <mxCell id="tqMdSsXaVdP0iYTyS-ye-24" value="Load Balancer" style="text;html=1;strokeColor=none;fillColor=none;align=center;verticalAlign=middle;whiteSpace=wrap;rounded=0;" parent="1" vertex="1">
          <mxGeometry x="1570" y="861" width="102.5" height="20" as="geometry" />
        </mxCell>
        <mxCell id="tqMdSsXaVdP0iYTyS-ye-28" value="" style="rounded=0;whiteSpace=wrap;html=1;fillColor=#e1d5e7;strokeColor=#9673a6;" parent="1" vertex="1">
          <mxGeometry x="1782.25" y="980" width="215" height="128" as="geometry" />
        </mxCell>
        <mxCell id="tqMdSsXaVdP0iYTyS-ye-29" value="&lt;font style=&quot;font-size: 15px;&quot;&gt;&lt;b&gt;OpenId Identity Provider &lt;/b&gt;&lt;/font&gt;" style="text;html=1;strokeColor=none;fillColor=none;align=center;verticalAlign=middle;whiteSpace=wrap;rounded=0;" parent="1" vertex="1">
          <mxGeometry x="1799.75" y="990" width="180" height="30" as="geometry" />
        </mxCell>
        <mxCell id="tqMdSsXaVdP0iYTyS-ye-30" value="" style="verticalLabelPosition=bottom;sketch=0;aspect=fixed;html=1;verticalAlign=top;strokeColor=none;align=center;outlineConnect=0;shape=mxgraph.citrix.cloud;" parent="1" vertex="1">
          <mxGeometry x="1842.25" y="1020" width="95" height="62" as="geometry" />
        </mxCell>
        <mxCell id="tqMdSsXaVdP0iYTyS-ye-31" value="OKTA" style="text;html=1;strokeColor=none;fillColor=none;align=center;verticalAlign=middle;whiteSpace=wrap;rounded=0;" parent="1" vertex="1">
          <mxGeometry x="1859.75" y="1082" width="60" height="30" as="geometry" />
        </mxCell>
        <mxCell id="tqMdSsXaVdP0iYTyS-ye-32" value="" style="shape=flexArrow;endArrow=classic;startArrow=classic;html=1;rounded=0;entryX=0.5;entryY=1;entryDx=0;entryDy=0;" parent="1" edge="1">
          <mxGeometry width="100" height="100" relative="1" as="geometry">
            <mxPoint x="1859.75" y="980" as="sourcePoint" />
            <mxPoint x="1950" y="769.25" as="targetPoint" />
            <Array as="points" />
          </mxGeometry>
        </mxCell>
        <mxCell id="tqMdSsXaVdP0iYTyS-ye-34" value="okta.com/login" style="text;html=1;strokeColor=none;fillColor=none;align=center;verticalAlign=middle;whiteSpace=wrap;rounded=0;rotation=-60;" parent="1" vertex="1">
          <mxGeometry x="1859.75" y="856" width="60" height="30" as="geometry" />
        </mxCell>
        <mxCell id="tqMdSsXaVdP0iYTyS-ye-35" value="&lt;div&gt;/redirect/callback...&lt;/div&gt;" style="text;html=1;strokeColor=none;fillColor=none;align=center;verticalAlign=middle;whiteSpace=wrap;rounded=0;rotation=-65;" parent="1" vertex="1">
          <mxGeometry x="1859.75" y="880" width="110" height="16.5" as="geometry" />
        </mxCell>
        <mxCell id="tqMdSsXaVdP0iYTyS-ye-37" value="&lt;div&gt;token&lt;/div&gt;" style="text;html=1;strokeColor=none;fillColor=none;align=center;verticalAlign=middle;whiteSpace=wrap;rounded=0;rotation=15;" parent="1" vertex="1">
          <mxGeometry x="1550" y="947" width="60" height="30" as="geometry" />
        </mxCell>
        <mxCell id="tqMdSsXaVdP0iYTyS-ye-38" value="&lt;div&gt;jwt&lt;br&gt;sub=&lt;/div&gt;" style="text;html=1;strokeColor=none;fillColor=none;align=center;verticalAlign=middle;whiteSpace=wrap;rounded=0;rotation=15;" parent="1" vertex="1">
          <mxGeometry x="1540" y="990" width="70" height="30" as="geometry" />
        </mxCell>
        <mxCell id="tqMdSsXaVdP0iYTyS-ye-51" value="" style="endArrow=classic;html=1;rounded=0;strokeWidth=3;startArrow=classic;startFill=1;endFill=1;fillColor=#d5e8d4;strokeColor=#82b366;" parent="1" target="tqMdSsXaVdP0iYTyS-ye-10" edge="1">
          <mxGeometry width="50" height="50" relative="1" as="geometry">
            <mxPoint x="1648.75" y="830" as="sourcePoint" />
            <mxPoint x="1698.75" y="780" as="targetPoint" />
          </mxGeometry>
        </mxCell>
        <mxCell id="tqMdSsXaVdP0iYTyS-ye-52" value="" style="endArrow=classic;html=1;rounded=0;strokeWidth=3;startArrow=none;startFill=0;endFill=1;fillColor=#f8cecc;strokeColor=#b85450;" parent="1" source="tqMdSsXaVdP0iYTyS-ye-93" target="tqMdSsXaVdP0iYTyS-ye-11" edge="1">
          <mxGeometry width="50" height="50" relative="1" as="geometry">
            <mxPoint x="1650" y="850" as="sourcePoint" />
            <mxPoint x="1720" y="819.5" as="targetPoint" />
          </mxGeometry>
        </mxCell>
        <mxCell id="tqMdSsXaVdP0iYTyS-ye-54" value="" style="endArrow=classic;startArrow=none;html=1;rounded=0;exitX=1;exitY=0.5;exitDx=0;exitDy=0;strokeWidth=2;startFill=0;" parent="1" source="tqMdSsXaVdP0iYTyS-ye-83" target="6a7d8f32e03d9370-12" edge="1">
          <mxGeometry width="50" height="50" relative="1" as="geometry">
            <mxPoint x="1064" y="718.5" as="sourcePoint" />
            <mxPoint x="1114" y="668.5" as="targetPoint" />
            <Array as="points" />
          </mxGeometry>
        </mxCell>
        <mxCell id="tqMdSsXaVdP0iYTyS-ye-56" value="" style="endArrow=classic;startArrow=classic;html=1;rounded=0;strokeWidth=2;exitX=0.978;exitY=0.557;exitDx=0;exitDy=0;exitPerimeter=0;" parent="1" source="6a7d8f32e03d9370-24" target="6a7d8f32e03d9370-11" edge="1">
          <mxGeometry width="50" height="50" relative="1" as="geometry">
            <mxPoint x="1086" y="754.38" as="sourcePoint" />
            <mxPoint x="1136" y="704.38" as="targetPoint" />
          </mxGeometry>
        </mxCell>
        <mxCell id="tqMdSsXaVdP0iYTyS-ye-57" value="" style="endArrow=classic;startArrow=none;html=1;rounded=0;entryX=-0.013;entryY=0.489;entryDx=0;entryDy=0;entryPerimeter=0;exitX=1;exitY=0.865;exitDx=0;exitDy=0;exitPerimeter=0;strokeWidth=2;startFill=0;" parent="1" source="tqMdSsXaVdP0iYTyS-ye-100" target="6a7d8f32e03d9370-10" edge="1">
          <mxGeometry width="50" height="50" relative="1" as="geometry">
            <mxPoint x="1096" y="764.38" as="sourcePoint" />
            <mxPoint x="1282" y="751.5" as="targetPoint" />
            <Array as="points">
              <mxPoint x="1170" y="815" />
              <mxPoint x="1200" y="840" />
            </Array>
          </mxGeometry>
        </mxCell>
        <mxCell id="tqMdSsXaVdP0iYTyS-ye-60" value="SignalR Hub" style="text;html=1;strokeColor=none;fillColor=none;align=center;verticalAlign=middle;whiteSpace=wrap;rounded=0;" parent="1" vertex="1">
          <mxGeometry x="1248" y="619" width="100" height="30" as="geometry" />
        </mxCell>
        <mxCell id="tqMdSsXaVdP0iYTyS-ye-61" value="SignalR Hub" style="text;html=1;strokeColor=none;fillColor=none;align=center;verticalAlign=middle;whiteSpace=wrap;rounded=0;" parent="1" vertex="1">
          <mxGeometry x="1260" y="783" width="100" height="30" as="geometry" />
        </mxCell>
        <mxCell id="tqMdSsXaVdP0iYTyS-ye-62" value="SignalR Hub" style="text;html=1;strokeColor=none;fillColor=none;align=center;verticalAlign=middle;whiteSpace=wrap;rounded=0;" parent="1" vertex="1">
          <mxGeometry x="1260" y="932.75" width="100" height="30" as="geometry" />
        </mxCell>
        <mxCell id="tqMdSsXaVdP0iYTyS-ye-63" value="Redis Backplane" style="text;html=1;strokeColor=none;fillColor=none;align=center;verticalAlign=middle;whiteSpace=wrap;rounded=0;" parent="1" vertex="1">
          <mxGeometry x="971" y="753" width="110" height="30" as="geometry" />
        </mxCell>
        <mxCell id="tqMdSsXaVdP0iYTyS-ye-64" value="" style="shape=flexArrow;endArrow=classic;startArrow=classic;html=1;rounded=0;exitX=1.005;exitY=0.934;exitDx=0;exitDy=0;exitPerimeter=0;" parent="1" source="6a7d8f32e03d9370-59" edge="1">
          <mxGeometry width="100" height="100" relative="1" as="geometry">
            <mxPoint x="1493.75" y="1094" as="sourcePoint" />
            <mxPoint x="1780" y="1040" as="targetPoint" />
          </mxGeometry>
        </mxCell>
        <mxCell id="tqMdSsXaVdP0iYTyS-ye-70" value="" style="verticalLabelPosition=bottom;sketch=0;aspect=fixed;html=1;verticalAlign=top;strokeColor=none;align=center;outlineConnect=0;shape=mxgraph.citrix.router;" parent="1" vertex="1">
          <mxGeometry x="760" y="625.5" width="55" height="36.5" as="geometry" />
        </mxCell>
        <mxCell id="tqMdSsXaVdP0iYTyS-ye-72" value="" style="endArrow=classic;html=1;rounded=0;strokeWidth=2;" parent="1" source="tqMdSsXaVdP0iYTyS-ye-77" target="tqMdSsXaVdP0iYTyS-ye-70" edge="1">
          <mxGeometry width="50" height="50" relative="1" as="geometry">
            <mxPoint x="1148.5" y="571.5" as="sourcePoint" />
            <mxPoint x="1003.5" y="544.391304347826" as="targetPoint" />
          </mxGeometry>
        </mxCell>
        <mxCell id="tqMdSsXaVdP0iYTyS-ye-74" value="" style="verticalLabelPosition=bottom;sketch=0;aspect=fixed;html=1;verticalAlign=top;strokeColor=none;align=center;outlineConnect=0;shape=mxgraph.citrix.document;" parent="1" vertex="1">
          <mxGeometry x="390" y="517.5" width="47" height="72" as="geometry" />
        </mxCell>
        <mxCell id="tqMdSsXaVdP0iYTyS-ye-75" value="" style="verticalLabelPosition=bottom;sketch=0;aspect=fixed;html=1;verticalAlign=top;strokeColor=none;align=center;outlineConnect=0;shape=mxgraph.citrix.role_repeater;fillColor=#CCCCCC;gradientColor=#000000;gradientDirection=south;" parent="1" vertex="1">
          <mxGeometry x="390" y="676.31" width="87.37" height="87.37" as="geometry" />
        </mxCell>
        <mxCell id="tqMdSsXaVdP0iYTyS-ye-76" value="" style="endArrow=classic;startArrow=none;html=1;rounded=0;endFill=1;startFill=0;strokeWidth=2;" parent="1" source="tqMdSsXaVdP0iYTyS-ye-86" target="tqMdSsXaVdP0iYTyS-ye-70" edge="1">
          <mxGeometry width="50" height="50" relative="1" as="geometry">
            <mxPoint x="540" y="586" as="sourcePoint" />
            <mxPoint x="590" y="536" as="targetPoint" />
            <Array as="points" />
          </mxGeometry>
        </mxCell>
        <mxCell id="tqMdSsXaVdP0iYTyS-ye-78" value="" style="endArrow=none;html=1;rounded=0;strokeWidth=2;endFill=0;" parent="1" source="6a7d8f32e03d9370-12" target="tqMdSsXaVdP0iYTyS-ye-77" edge="1">
          <mxGeometry width="50" height="50" relative="1" as="geometry">
            <mxPoint x="1272" y="574" as="sourcePoint" />
            <mxPoint x="795" y="568" as="targetPoint" />
          </mxGeometry>
        </mxCell>
        <mxCell id="tqMdSsXaVdP0iYTyS-ye-77" value="Get playlist from replicant api on first connection" style="text;html=1;strokeColor=none;fillColor=none;align=center;verticalAlign=middle;whiteSpace=wrap;rounded=0;" parent="1" vertex="1">
          <mxGeometry x="958.42" y="550" width="233" height="30" as="geometry" />
        </mxCell>
        <mxCell id="tqMdSsXaVdP0iYTyS-ye-79" value="" style="edgeStyle=none;rounded=0;html=1;startSize=10;endSize=10;jettySize=auto;orthogonalLoop=1;fontSize=14;endArrow=none;endFill=0;strokeWidth=3;exitX=0.921;exitY=0.713;exitDx=0;exitDy=0;exitPerimeter=0;startArrow=classic;startFill=1;fillColor=#cce5ff;strokeColor=#36393d;" parent="1" source="6a7d8f32e03d9370-12" target="tqMdSsXaVdP0iYTyS-ye-71" edge="1">
          <mxGeometry relative="1" as="geometry">
            <mxPoint x="1342" y="593" as="sourcePoint" />
            <mxPoint x="1600" y="820" as="targetPoint" />
          </mxGeometry>
        </mxCell>
        <mxCell id="tqMdSsXaVdP0iYTyS-ye-71" value="&lt;div&gt;Connect to hub and subscribe to specific messages&lt;/div&gt;" style="text;html=1;strokeColor=none;fillColor=none;align=center;verticalAlign=middle;whiteSpace=wrap;rounded=0;rotation=40;" parent="1" vertex="1">
          <mxGeometry x="1388.42" y="674.34" width="173.51" height="58.62" as="geometry" />
        </mxCell>
        <mxCell id="tqMdSsXaVdP0iYTyS-ye-81" value="Notify" style="text;html=1;strokeColor=none;fillColor=none;align=center;verticalAlign=middle;whiteSpace=wrap;rounded=0;" parent="1" vertex="1">
          <mxGeometry x="390" y="759.5" width="90" height="30" as="geometry" />
        </mxCell>
        <mxCell id="tqMdSsXaVdP0iYTyS-ye-82" value="&lt;div&gt;GetPlaylist API&lt;/div&gt;" style="text;html=1;strokeColor=none;fillColor=none;align=center;verticalAlign=middle;whiteSpace=wrap;rounded=0;" parent="1" vertex="1">
          <mxGeometry x="415" y="605" width="90" height="30" as="geometry" />
        </mxCell>
        <mxCell id="tqMdSsXaVdP0iYTyS-ye-84" value="" style="endArrow=none;startArrow=classic;html=1;rounded=0;exitX=0.924;exitY=0.092;exitDx=0;exitDy=0;exitPerimeter=0;strokeWidth=2;endFill=0;" parent="1" source="6a7d8f32e03d9370-24" target="tqMdSsXaVdP0iYTyS-ye-83" edge="1">
          <mxGeometry width="50" height="50" relative="1" as="geometry">
            <mxPoint x="1065" y="720" as="sourcePoint" />
            <mxPoint x="1272" y="615" as="targetPoint" />
            <Array as="points" />
          </mxGeometry>
        </mxCell>
        <mxCell id="tqMdSsXaVdP0iYTyS-ye-83" value="publish/receive playlist to/from other hubs" style="text;html=1;strokeColor=none;fillColor=none;align=center;verticalAlign=middle;whiteSpace=wrap;rounded=0;rotation=-30;" parent="1" vertex="1">
          <mxGeometry x="1110" y="625.5" width="110" height="30" as="geometry" />
        </mxCell>
        <mxCell id="tqMdSsXaVdP0iYTyS-ye-87" value="" style="endArrow=none;startArrow=classic;html=1;rounded=0;strokeWidth=2;endFill=0;" parent="1" source="tqMdSsXaVdP0iYTyS-ye-74" edge="1">
          <mxGeometry width="50" height="50" relative="1" as="geometry">
            <mxPoint x="484" y="557" as="sourcePoint" />
            <mxPoint x="540" y="560" as="targetPoint" />
            <Array as="points" />
          </mxGeometry>
        </mxCell>
        <mxCell id="tqMdSsXaVdP0iYTyS-ye-86" value="Return playlist in json format" style="text;html=1;strokeColor=none;fillColor=none;align=center;verticalAlign=middle;whiteSpace=wrap;rounded=0;rotation=15;" parent="1" vertex="1">
          <mxGeometry x="540" y="571.5" width="160" height="30" as="geometry" />
        </mxCell>
        <mxCell id="tqMdSsXaVdP0iYTyS-ye-89" value="" style="endArrow=classic;html=1;rounded=0;strokeWidth=2;exitX=1;exitY=0.5;exitDx=0;exitDy=0;" parent="1" edge="1">
          <mxGeometry width="50" height="50" relative="1" as="geometry">
            <mxPoint x="680.0017782649105" y="721.52" as="sourcePoint" />
            <mxPoint x="776.26" y="662.0009333542105" as="targetPoint" />
            <Array as="points">
              <mxPoint x="749.38" y="677.52" />
            </Array>
          </mxGeometry>
        </mxCell>
        <mxCell id="tqMdSsXaVdP0iYTyS-ye-91" value="" style="endArrow=none;html=1;rounded=0;entryX=0;entryY=0.5;entryDx=0;entryDy=0;strokeWidth=2;endFill=0;" parent="1" source="tqMdSsXaVdP0iYTyS-ye-75" target="tqMdSsXaVdP0iYTyS-ye-90" edge="1">
          <mxGeometry width="50" height="50" relative="1" as="geometry">
            <mxPoint x="503.69" y="712" as="sourcePoint" />
            <mxPoint x="765" y="583" as="targetPoint" />
            <Array as="points" />
          </mxGeometry>
        </mxCell>
        <mxCell id="tqMdSsXaVdP0iYTyS-ye-90" value="&lt;div&gt;POST update notification to oav api&lt;/div&gt;" style="text;html=1;strokeColor=none;fillColor=none;align=center;verticalAlign=middle;whiteSpace=wrap;rounded=0;rotation=0;" parent="1" vertex="1">
          <mxGeometry x="540" y="705" width="140" height="30" as="geometry" />
        </mxCell>
        <mxCell id="tqMdSsXaVdP0iYTyS-ye-94" value="" style="endArrow=none;html=1;rounded=0;strokeWidth=3;startArrow=classic;startFill=1;endFill=0;fillColor=#f8cecc;strokeColor=#b85450;" parent="1" target="tqMdSsXaVdP0iYTyS-ye-93" edge="1">
          <mxGeometry width="50" height="50" relative="1" as="geometry">
            <mxPoint x="1650" y="850" as="sourcePoint" />
            <mxPoint x="1970" y="727" as="targetPoint" />
          </mxGeometry>
        </mxCell>
        <mxCell id="tqMdSsXaVdP0iYTyS-ye-93" value="refresh displayed playlist" style="text;html=1;strokeColor=none;fillColor=none;align=center;verticalAlign=middle;whiteSpace=wrap;rounded=0;" parent="1" vertex="1">
          <mxGeometry x="1739.75" y="789.5" width="150.25" height="30" as="geometry" />
        </mxCell>
        <mxCell id="tqMdSsXaVdP0iYTyS-ye-101" value="" style="endArrow=none;startArrow=classic;html=1;rounded=0;entryX=0.117;entryY=-0.017;entryDx=0;entryDy=0;entryPerimeter=0;exitX=1;exitY=0.865;exitDx=0;exitDy=0;exitPerimeter=0;strokeWidth=2;endFill=0;" parent="1" source="6a7d8f32e03d9370-24" target="tqMdSsXaVdP0iYTyS-ye-100" edge="1">
          <mxGeometry width="50" height="50" relative="1" as="geometry">
            <mxPoint x="1072" y="742" as="sourcePoint" />
            <mxPoint x="1271" y="887" as="targetPoint" />
          </mxGeometry>
        </mxCell>
        <mxCell id="tqMdSsXaVdP0iYTyS-ye-100" value="publish" style="text;html=1;strokeColor=none;fillColor=none;align=center;verticalAlign=middle;whiteSpace=wrap;rounded=0;" parent="1" vertex="1">
          <mxGeometry x="1120" y="789.5" width="60" height="30" as="geometry" />
        </mxCell>
        <mxCell id="tqMdSsXaVdP0iYTyS-ye-104" value="" style="endArrow=classic;html=1;rounded=0;strokeWidth=2;entryX=0.092;entryY=0.913;entryDx=0;entryDy=0;entryPerimeter=0;" parent="1" source="tqMdSsXaVdP0iYTyS-ye-107" target="6a7d8f32e03d9370-10" edge="1">
          <mxGeometry width="50" height="50" relative="1" as="geometry">
            <mxPoint x="830" y="888" as="sourcePoint" />
            <mxPoint x="900" y="890" as="targetPoint" />
            <Array as="points">
              <mxPoint x="970" y="850" />
            </Array>
          </mxGeometry>
        </mxCell>
        <mxCell id="tqMdSsXaVdP0iYTyS-ye-106" value="" style="endArrow=classic;html=1;rounded=0;strokeWidth=2;entryX=0;entryY=0.5;entryDx=0;entryDy=0;" parent="1" edge="1">
          <mxGeometry width="50" height="50" relative="1" as="geometry">
            <mxPoint x="780" y="665.8786724763265" as="sourcePoint" />
            <mxPoint x="854.0373334128612" y="756.8127434188076" as="targetPoint" />
            <Array as="points" />
          </mxGeometry>
        </mxCell>
        <mxCell id="tqMdSsXaVdP0iYTyS-ye-107" value="&lt;div&gt;updated playlist&lt;/div&gt;" style="text;html=1;strokeColor=none;fillColor=none;align=center;verticalAlign=middle;whiteSpace=wrap;rounded=0;rotation=40;" parent="1" vertex="1">
          <mxGeometry x="830" y="770" width="120" height="30" as="geometry" />
        </mxCell>
      </root>
    </mxGraphModel>
  </diagram>
</mxfile>
